<?xml version='1.0' encoding='UTF-8'?>
<!DOCTYPE svg PUBLIC "-//W3C//DTD SVG 1.1//EN" "http://www.w3.org/Graphics/SVG/1.1/DTD/svg11.dtd">
<!-- Created with matplotlib (http://matplotlib.org/) -->
<svg xmlns="http://www.w3.org/2000/svg" xmlns:xlink="http://www.w3.org/1999/xlink" height="400px" version="1.1" viewBox="0 0 420 400" width="420px">
  <title>mplwp_roots_01.svg</title>
  <desc>http://commons.wikimedia.org/wiki/File:mplwp_roots_01.svg
Plot created with mplwp, the Matplotlib extension for Wikipedia plots.</desc>
  <defs>
    <style type="text/css">
*{stroke-linecap:butt;stroke-linejoin:round;stroke-miterlimit:100000;}
  </style>
  </defs>
  <defs>
    <clipPath id="p8623bc88d4">
      <rect height="355.0" width="355.0" x="42.5" y="18.5"/>
    </clipPath>
  </defs>
  <g id="figure_1">
    <g id="patch_1">
      <path d="M 0 400 
L 420 400 
L 420 0 
L 0 0 
z 
" style="fill:#ffffff;"/>
    </g>
    <g id="axes_1">
      <g id="patch_2">
        <path d="M 42.5 373.5 
L 397.5 373.5 
L 397.5 18.5 
L 42.5 18.5 
z 
" style="fill:#ffffff;"/>
      </g>
      <g id="line2d_1">
        <path clip-path="url(#p8623bc88d4)" d="M 42.5 373.5 
L 42.571 251.078667 
L 42.642 239.99859 
L 42.926 220.346823 
L 43.352 206.485277 
L 43.92 195.473009 
L 44.63 186.217474 
L 45.482 178.172557 
L 46.476 171.020712 
L 47.541 164.92397 
L 48.748 159.251674 
L 50.097 153.951702 
L 51.588 148.978286 
L 53.221 144.292291 
L 54.996 139.860544 
L 56.913 135.654956 
L 59.043 131.521605 
L 61.315 127.597561 
L 63.8 123.754737 
L 66.427 120.097532 
L 69.267 116.519736 
L 72.32 113.026669 
L 75.657 109.549972 
L 79.207 106.172633 
L 83.041 102.832186 
L 87.159 99.539195 
L 91.632 96.25076 
L 96.46 92.983248 
L 101.643 89.748786 
L 107.181 86.556164 
L 113.145 83.375111 
L 119.606 80.183948 
L 126.564 76.999066 
L 134.019 73.83314 
L 142.042 70.668809 
L 150.704 67.493802 
L 160.005 64.323232 
L 170.016 61.147207 
L 180.808 57.959055 
L 192.452 54.754662 
L 204.948 51.549499 
L 218.367 48.339447 
L 232.78 45.122077 
L 248.329 41.881974 
L 265.014 38.635217 
L 282.906 35.382249 
L 302.147 32.112416 
L 322.808 28.829396 
L 344.96 25.536811 
L 368.745 22.2286 
L 394.234 18.909903 
L 397.5 18.5 
L 397.5 18.5 
" style="fill:none;stroke:#0000cc;stroke-linecap:square;stroke-width:2.4;"/>
      </g>
      <g id="line2d_2">
        <path clip-path="url(#p8623bc88d4)" d="M 42.5 373.5 
L 42.571 331.283147 
L 42.642 323.295419 
L 42.997 304.831057 
L 43.494 291.838405 
L 44.133 281.047681 
L 44.914 271.557429 
L 45.837 262.962327 
L 46.902 255.036714 
L 48.109 247.638581 
L 49.529 240.333603 
L 51.091 233.48254 
L 52.795 227.003296 
L 54.641 220.836618 
L 56.7 214.739174 
L 58.901 208.915532 
L 61.315 203.167579 
L 63.871 197.656032 
L 66.64 192.217625 
L 69.622 186.861303 
L 72.746 181.704571 
L 76.083 176.62021 
L 79.633 171.611643 
L 83.467 166.590798 
L 87.514 161.659903 
L 91.845 156.738547 
L 96.389 151.91197 
L 101.217 147.107399 
L 106.329 142.333033 
L 111.796 137.534611 
L 117.547 132.784199 
L 123.653 128.030573 
L 130.114 123.284251 
L 136.93 118.553671 
L 144.172 113.800205 
L 151.84 109.036323 
L 159.934 104.272308 
L 168.454 99.516597 
L 177.471 94.739406 
L 186.985 89.95176 
L 197.067 85.129746 
L 207.717 80.285834 
L 218.935 75.430561 
L 230.721 70.572791 
L 243.146 65.692717 
L 256.281 60.774323 
L 270.126 55.829613 
L 284.681 50.868861 
L 300.017 45.878239 
L 316.205 40.846615 
L 333.174 35.806414 
L 351.066 30.725676 
L 369.881 25.615858 
L 389.69 20.468818 
L 397.5 18.5 
L 397.5 18.5 
" style="fill:none;stroke:#dd00aa;stroke-linecap:square;stroke-width:2.4;"/>
      </g>
      <g id="line2d_3">
        <path clip-path="url(#p8623bc88d4)" d="M 42.5 373.5 
L 42.571 368.479542 
L 42.713 364.804311 
L 43.139 358.438626 
L 43.778 352.2 
L 44.63 346.001818 
L 45.695 339.821743 
L 47.044 333.336335 
L 48.606 326.942186 
L 50.381 320.606191 
L 52.44 314.097138 
L 54.712 307.657309 
L 57.268 301.093923 
L 60.037 294.597307 
L 63.09 288.004678 
L 66.427 281.33664 
L 70.048 274.608443 
L 73.953 267.83158 
L 78.142 261.014845 
L 82.615 254.165072 
L 87.372 247.287639 
L 92.484 240.292192 
L 97.88 233.286235 
L 103.631 226.185693 
L 109.737 219.003608 
L 116.198 211.750842 
L 123.014 204.436491 
L 130.185 197.068214 
L 137.782 189.583959 
L 145.734 182.063144 
L 154.112 174.44659 
L 162.916 166.744879 
L 172.146 158.967182 
L 181.802 151.121471 
L 191.955 143.15998 
L 202.605 135.094306 
L 213.681 126.985791 
L 225.254 118.789046 
L 237.395 110.464404 
L 250.033 102.070055 
L 263.239 93.567249 
L 277.013 84.965574 
L 291.355 76.273613 
L 306.265 67.49906 
L 321.743 58.648821 
L 337.86 49.690179 
L 354.616 40.631888 
L 372.011 31.481865 
L 390.116 22.211401 
L 397.5 18.5 
L 397.5 18.5 
" style="fill:none;stroke:#999900;stroke-linecap:square;stroke-width:2.4;"/>
      </g>
      <g id="line2d_4">
        <path clip-path="url(#p8623bc88d4)" d="M 42.5 373.5 
L 397.5 18.5 
L 397.5 18.5 
" style="fill:none;stroke:#00bb00;stroke-linecap:square;stroke-width:2.4;"/>
      </g>
      <g id="line2d_5">
        <path clip-path="url(#p8623bc88d4)" d="M 42.5 373.5 
L 48.748 373.390035 
L 54.996 373.060141 
L 61.315 372.502805 
L 67.634 371.720513 
L 73.953 370.713264 
L 80.272 369.481059 
L 86.591 368.023898 
L 92.981 366.321602 
L 99.371 364.389266 
L 105.832 362.201571 
L 112.293 359.778696 
L 118.825 357.090125 
L 125.357 354.161176 
L 131.96 350.95608 
L 138.634 347.466913 
L 145.308 343.726803 
L 152.053 339.691944 
L 158.869 335.354242 
L 165.756 330.705517 
L 172.714 325.737505 
L 179.743 320.441856 
L 186.772 314.867859 
L 193.872 308.954979 
L 201.043 302.694696 
L 208.285 296.078405 
L 215.598 289.097415 
L 223.053 281.670744 
L 230.579 273.855746 
L 238.176 265.643389 
L 245.844 257.024557 
L 253.583 247.990048 
L 261.393 238.530576 
L 269.274 228.636769 
L 277.297 218.205264 
L 285.391 207.313978 
L 293.556 195.953197 
L 301.792 184.113123 
L 310.17 171.67682 
L 318.619 158.734642 
L 327.139 145.27645 
L 335.801 131.174714 
L 344.534 116.529473 
L 353.338 101.330247 
L 362.284 85.438573 
L 371.301 68.964514 
L 380.389 51.89725 
L 389.619 34.087042 
L 397.5 18.5 
L 397.5 18.5 
" style="fill:none;stroke:#00bbcc;stroke-linecap:square;stroke-width:2.4;"/>
      </g>
      <g id="line2d_6">
        <path clip-path="url(#p8623bc88d4)" d="M 42.5 373.5 
L 89.715 373.38892 
L 106.826 373.117298 
L 120.032 372.692321 
L 131.25 372.113281 
L 141.119 371.385745 
L 150.065 370.507743 
L 158.372 369.470706 
L 166.111 368.281527 
L 173.353 366.946857 
L 180.24 365.454459 
L 186.843 363.797183 
L 193.162 361.983252 
L 199.268 359.999663 
L 205.161 357.852366 
L 210.912 355.51928 
L 216.45 353.034956 
L 221.917 350.33836 
L 227.242 347.463806 
L 232.496 344.3732 
L 237.608 341.109679 
L 242.649 337.630226 
L 247.619 333.93251 
L 252.589 329.956013 
L 257.488 325.750171 
L 262.316 321.314224 
L 267.144 316.576154 
L 271.972 311.522544 
L 276.729 306.221299 
L 281.486 300.587031 
L 286.243 294.606077 
L 291 288.2645 
L 295.757 281.548086 
L 300.514 274.442348 
L 305.271 266.932525 
L 310.028 259.003579 
L 314.785 250.640199 
L 319.542 241.826798 
L 324.299 232.547517 
L 329.127 222.636794 
L 333.955 212.212399 
L 338.783 201.256884 
L 343.611 189.752506 
L 348.51 177.499393 
L 353.409 164.643442 
L 358.308 151.165197 
L 363.278 136.835432 
L 368.248 121.823902 
L 373.289 105.879623 
L 378.33 89.1895 
L 383.371 71.730628 
L 388.483 53.216931 
L 393.595 33.864155 
L 397.5 18.5 
L 397.5 18.5 
" style="fill:none;stroke:#af77dd;stroke-linecap:square;stroke-width:2.4;"/>
      </g>
      <g id="line2d_7">
        <path clip-path="url(#p8623bc88d4)" d="M 42.5 373.5 
L 171.933 373.389143 
L 192.665 373.136126 
L 206.865 372.750319 
L 218.012 372.232768 
L 227.313 371.58459 
L 235.407 370.801108 
L 242.578 369.885933 
L 249.039 368.839655 
L 254.932 367.663385 
L 260.399 366.347738 
L 265.511 364.889828 
L 270.268 363.306034 
L 274.812 361.560815 
L 279.143 359.65953 
L 283.261 357.611217 
L 287.237 355.386658 
L 291.071 352.988132 
L 294.763 350.42031 
L 298.384 347.632969 
L 301.934 344.618705 
L 305.413 341.37094 
L 308.821 337.884026 
L 312.158 334.153328 
L 315.495 330.085073 
L 318.761 325.751672 
L 322.027 321.044427 
L 325.222 316.051544 
L 328.417 310.647674 
L 331.612 304.804155 
L 334.807 298.490676 
L 338.002 291.675205 
L 341.197 284.323912 
L 344.392 276.401088 
L 347.587 267.869059 
L 350.782 258.688109 
L 353.977 248.816383 
L 357.172 238.209802 
L 360.367 226.821968 
L 363.562 214.604067 
L 366.757 201.504767 
L 369.952 187.470119 
L 373.218 172.097808 
L 376.484 155.62529 
L 379.75 137.985747 
L 383.016 119.109017 
L 386.282 98.921455 
L 389.548 77.3458 
L 392.885 53.783114 
L 396.222 28.596101 
L 397.5 18.5 
L 397.5 18.5 
" style="fill:none;stroke:#f46644;stroke-linecap:square;stroke-width:2.4;"/>
      </g>
      <g id="patch_3">
        <path d="M 42.5 18.5 
L 397.5 18.5 
" style="fill:none;stroke:#000000;stroke-linecap:square;stroke-linejoin:miter;stroke-width:1.25;"/>
      </g>
      <g id="patch_4">
        <path d="M 397.5 373.5 
L 397.5 18.5 
" style="fill:none;stroke:#000000;stroke-linecap:square;stroke-linejoin:miter;stroke-width:1.25;"/>
      </g>
      <g id="patch_5">
        <path d="M 42.5 373.5 
L 397.5 373.5 
" style="fill:none;stroke:#000000;stroke-linecap:square;stroke-linejoin:miter;stroke-width:1.25;"/>
      </g>
      <g id="patch_6">
        <path d="M 42.5 373.5 
L 42.5 18.5 
" style="fill:none;stroke:#000000;stroke-linecap:square;stroke-linejoin:miter;stroke-width:1.25;"/>
      </g>
      <g id="matplotlib.axis_1">
        <g id="xtick_1">
          <g id="line2d_8">
            <path clip-path="url(#p8623bc88d4)" d="M 42.5 373.5 
L 42.5 18.5 
" style="fill:none;stroke:#000000;stroke-dasharray:3.000000,1.000000;stroke-dashoffset:0.0;stroke-width:0.5;"/>
          </g>
          <g id="line2d_9">
            <defs>
              <path d="M 0 0 
L 0 -4 
" id="me13d3e1730" style="stroke:#000000;stroke-width:1.25;"/>
            </defs>
            <g>
              <use style="stroke:#000000;stroke-width:1.25;" x="42.5" xlink:href="#me13d3e1730" y="373.5"/>
            </g>
          </g>
          <g id="line2d_10">
            <defs>
              <path d="M 0 0 
L 0 4 
" id="m0514ef5258" style="stroke:#000000;stroke-width:1.25;"/>
            </defs>
            <g>
              <use style="stroke:#000000;stroke-width:1.25;" x="42.5" xlink:href="#m0514ef5258" y="18.5"/>
            </g>
          </g>
          <g id="text_1">
            <!-- 0.0 -->
            <defs>
              <path d="M 31.78125 66.40625 
Q 24.171875 66.40625 20.328125 58.90625 
Q 16.5 51.421875 16.5 36.375 
Q 16.5 21.390625 20.328125 13.890625 
Q 24.171875 6.390625 31.78125 6.390625 
Q 39.453125 6.390625 43.28125 13.890625 
Q 47.125 21.390625 47.125 36.375 
Q 47.125 51.421875 43.28125 58.90625 
Q 39.453125 66.40625 31.78125 66.40625 
M 31.78125 74.21875 
Q 44.046875 74.21875 50.515625 64.515625 
Q 56.984375 54.828125 56.984375 36.375 
Q 56.984375 17.96875 50.515625 8.265625 
Q 44.046875 -1.421875 31.78125 -1.421875 
Q 19.53125 -1.421875 13.0625 8.265625 
Q 6.59375 17.96875 6.59375 36.375 
Q 6.59375 54.828125 13.0625 64.515625 
Q 19.53125 74.21875 31.78125 74.21875 
" id="DejaVuSans-30"/>
              <path d="M 10.6875 12.40625 
L 21 12.40625 
L 21 0 
L 10.6875 0 
z 
" id="DejaVuSans-2e"/>
            </defs>
            <g transform="translate(29.7775 392.6575)scale(0.16 -0.16)">
              <use xlink:href="#DejaVuSans-30"/>
              <use x="63.623046875" xlink:href="#DejaVuSans-2e"/>
              <use x="95.41015625" xlink:href="#DejaVuSans-30"/>
            </g>
          </g>
        </g>
        <g id="xtick_2">
          <g id="line2d_11">
            <path clip-path="url(#p8623bc88d4)" d="M 78 373.5 
L 78 18.5 
" style="fill:none;stroke:#000000;stroke-dasharray:1.000000,3.000000;stroke-dashoffset:0.0;stroke-width:0.5;"/>
          </g>
          <g id="line2d_12">
            <g>
              <use style="stroke:#000000;stroke-width:1.25;" x="78.0" xlink:href="#me13d3e1730" y="373.5"/>
            </g>
          </g>
          <g id="line2d_13">
            <g>
              <use style="stroke:#000000;stroke-width:1.25;" x="78.0" xlink:href="#m0514ef5258" y="18.5"/>
            </g>
          </g>
          <g id="text_2">
            <!-- 0.1 -->
            <defs>
              <path d="M 12.40625 8.296875 
L 28.515625 8.296875 
L 28.515625 63.921875 
L 10.984375 60.40625 
L 10.984375 69.390625 
L 28.421875 72.90625 
L 38.28125 72.90625 
L 38.28125 8.296875 
L 54.390625 8.296875 
L 54.390625 0 
L 12.40625 0 
z 
" id="DejaVuSans-31"/>
            </defs>
            <g transform="translate(65.2775 392.6575)scale(0.16 -0.16)">
              <use xlink:href="#DejaVuSans-30"/>
              <use x="63.623046875" xlink:href="#DejaVuSans-2e"/>
              <use x="95.41015625" xlink:href="#DejaVuSans-31"/>
            </g>
          </g>
        </g>
        <g id="xtick_3">
          <g id="line2d_14">
            <path clip-path="url(#p8623bc88d4)" d="M 113.5 373.5 
L 113.5 18.5 
" style="fill:none;stroke:#000000;stroke-dasharray:1.000000,3.000000;stroke-dashoffset:0.0;stroke-width:0.5;"/>
          </g>
          <g id="line2d_15">
            <g>
              <use style="stroke:#000000;stroke-width:1.25;" x="113.5" xlink:href="#me13d3e1730" y="373.5"/>
            </g>
          </g>
          <g id="line2d_16">
            <g>
              <use style="stroke:#000000;stroke-width:1.25;" x="113.5" xlink:href="#m0514ef5258" y="18.5"/>
            </g>
          </g>
          <g id="text_3">
            <!-- 0.2 -->
            <defs>
              <path d="M 19.1875 8.296875 
L 53.609375 8.296875 
L 53.609375 0 
L 7.328125 0 
L 7.328125 8.296875 
Q 12.9375 14.109375 22.625 23.890625 
Q 32.328125 33.6875 34.8125 36.53125 
Q 39.546875 41.84375 41.421875 45.53125 
Q 43.3125 49.21875 43.3125 52.78125 
Q 43.3125 58.59375 39.234375 62.25 
Q 35.15625 65.921875 28.609375 65.921875 
Q 23.96875 65.921875 18.8125 64.3125 
Q 13.671875 62.703125 7.8125 59.421875 
L 7.8125 69.390625 
Q 13.765625 71.78125 18.9375 73 
Q 24.125 74.21875 28.421875 74.21875 
Q 39.75 74.21875 46.484375 68.546875 
Q 53.21875 62.890625 53.21875 53.421875 
Q 53.21875 48.921875 51.53125 44.890625 
Q 49.859375 40.875 45.40625 35.40625 
Q 44.1875 33.984375 37.640625 27.21875 
Q 31.109375 20.453125 19.1875 8.296875 
" id="DejaVuSans-32"/>
            </defs>
            <g transform="translate(100.7775 392.6575)scale(0.16 -0.16)">
              <use xlink:href="#DejaVuSans-30"/>
              <use x="63.623046875" xlink:href="#DejaVuSans-2e"/>
              <use x="95.41015625" xlink:href="#DejaVuSans-32"/>
            </g>
          </g>
        </g>
        <g id="xtick_4">
          <g id="line2d_17">
            <path clip-path="url(#p8623bc88d4)" d="M 149 373.5 
L 149 18.5 
" style="fill:none;stroke:#000000;stroke-dasharray:1.000000,3.000000;stroke-dashoffset:0.0;stroke-width:0.5;"/>
          </g>
          <g id="line2d_18">
            <g>
              <use style="stroke:#000000;stroke-width:1.25;" x="149.0" xlink:href="#me13d3e1730" y="373.5"/>
            </g>
          </g>
          <g id="line2d_19">
            <g>
              <use style="stroke:#000000;stroke-width:1.25;" x="149.0" xlink:href="#m0514ef5258" y="18.5"/>
            </g>
          </g>
          <g id="text_4">
            <!-- 0.3 -->
            <defs>
              <path d="M 40.578125 39.3125 
Q 47.65625 37.796875 51.625 33 
Q 55.609375 28.21875 55.609375 21.1875 
Q 55.609375 10.40625 48.1875 4.484375 
Q 40.765625 -1.421875 27.09375 -1.421875 
Q 22.515625 -1.421875 17.65625 -0.515625 
Q 12.796875 0.390625 7.625 2.203125 
L 7.625 11.71875 
Q 11.71875 9.328125 16.59375 8.109375 
Q 21.484375 6.890625 26.8125 6.890625 
Q 36.078125 6.890625 40.9375 10.546875 
Q 45.796875 14.203125 45.796875 21.1875 
Q 45.796875 27.640625 41.28125 31.265625 
Q 36.765625 34.90625 28.71875 34.90625 
L 20.21875 34.90625 
L 20.21875 43.015625 
L 29.109375 43.015625 
Q 36.375 43.015625 40.234375 45.921875 
Q 44.09375 48.828125 44.09375 54.296875 
Q 44.09375 59.90625 40.109375 62.90625 
Q 36.140625 65.921875 28.71875 65.921875 
Q 24.65625 65.921875 20.015625 65.03125 
Q 15.375 64.15625 9.8125 62.3125 
L 9.8125 71.09375 
Q 15.4375 72.65625 20.34375 73.4375 
Q 25.25 74.21875 29.59375 74.21875 
Q 40.828125 74.21875 47.359375 69.109375 
Q 53.90625 64.015625 53.90625 55.328125 
Q 53.90625 49.265625 50.4375 45.09375 
Q 46.96875 40.921875 40.578125 39.3125 
" id="DejaVuSans-33"/>
            </defs>
            <g transform="translate(136.2775 392.6575)scale(0.16 -0.16)">
              <use xlink:href="#DejaVuSans-30"/>
              <use x="63.623046875" xlink:href="#DejaVuSans-2e"/>
              <use x="95.41015625" xlink:href="#DejaVuSans-33"/>
            </g>
          </g>
        </g>
        <g id="xtick_5">
          <g id="line2d_20">
            <path clip-path="url(#p8623bc88d4)" d="M 184.5 373.5 
L 184.5 18.5 
" style="fill:none;stroke:#000000;stroke-dasharray:1.000000,3.000000;stroke-dashoffset:0.0;stroke-width:0.5;"/>
          </g>
          <g id="line2d_21">
            <g>
              <use style="stroke:#000000;stroke-width:1.25;" x="184.5" xlink:href="#me13d3e1730" y="373.5"/>
            </g>
          </g>
          <g id="line2d_22">
            <g>
              <use style="stroke:#000000;stroke-width:1.25;" x="184.5" xlink:href="#m0514ef5258" y="18.5"/>
            </g>
          </g>
          <g id="text_5">
            <!-- 0.4 -->
            <defs>
              <path d="M 37.796875 64.3125 
L 12.890625 25.390625 
L 37.796875 25.390625 
z 
M 35.203125 72.90625 
L 47.609375 72.90625 
L 47.609375 25.390625 
L 58.015625 25.390625 
L 58.015625 17.1875 
L 47.609375 17.1875 
L 47.609375 0 
L 37.796875 0 
L 37.796875 17.1875 
L 4.890625 17.1875 
L 4.890625 26.703125 
z 
" id="DejaVuSans-34"/>
            </defs>
            <g transform="translate(171.7775 392.6575)scale(0.16 -0.16)">
              <use xlink:href="#DejaVuSans-30"/>
              <use x="63.623046875" xlink:href="#DejaVuSans-2e"/>
              <use x="95.41015625" xlink:href="#DejaVuSans-34"/>
            </g>
          </g>
        </g>
        <g id="xtick_6">
          <g id="line2d_23">
            <path clip-path="url(#p8623bc88d4)" d="M 220 373.5 
L 220 18.5 
" style="fill:none;stroke:#000000;stroke-dasharray:1.000000,3.000000;stroke-dashoffset:0.0;stroke-width:0.5;"/>
          </g>
          <g id="line2d_24">
            <g>
              <use style="stroke:#000000;stroke-width:1.25;" x="220.0" xlink:href="#me13d3e1730" y="373.5"/>
            </g>
          </g>
          <g id="line2d_25">
            <g>
              <use style="stroke:#000000;stroke-width:1.25;" x="220.0" xlink:href="#m0514ef5258" y="18.5"/>
            </g>
          </g>
          <g id="text_6">
            <!-- 0.5 -->
            <defs>
              <path d="M 10.796875 72.90625 
L 49.515625 72.90625 
L 49.515625 64.59375 
L 19.828125 64.59375 
L 19.828125 46.734375 
Q 21.96875 47.46875 24.109375 47.828125 
Q 26.265625 48.1875 28.421875 48.1875 
Q 40.625 48.1875 47.75 41.5 
Q 54.890625 34.8125 54.890625 23.390625 
Q 54.890625 11.625 47.5625 5.09375 
Q 40.234375 -1.421875 26.90625 -1.421875 
Q 22.3125 -1.421875 17.546875 -0.640625 
Q 12.796875 0.140625 7.71875 1.703125 
L 7.71875 11.625 
Q 12.109375 9.234375 16.796875 8.0625 
Q 21.484375 6.890625 26.703125 6.890625 
Q 35.15625 6.890625 40.078125 11.328125 
Q 45.015625 15.765625 45.015625 23.390625 
Q 45.015625 31 40.078125 35.4375 
Q 35.15625 39.890625 26.703125 39.890625 
Q 22.75 39.890625 18.8125 39.015625 
Q 14.890625 38.140625 10.796875 36.28125 
z 
" id="DejaVuSans-35"/>
            </defs>
            <g transform="translate(207.2775 392.6575)scale(0.16 -0.16)">
              <use xlink:href="#DejaVuSans-30"/>
              <use x="63.623046875" xlink:href="#DejaVuSans-2e"/>
              <use x="95.41015625" xlink:href="#DejaVuSans-35"/>
            </g>
          </g>
        </g>
        <g id="xtick_7">
          <g id="line2d_26">
            <path clip-path="url(#p8623bc88d4)" d="M 255.5 373.5 
L 255.5 18.5 
" style="fill:none;stroke:#000000;stroke-dasharray:1.000000,3.000000;stroke-dashoffset:0.0;stroke-width:0.5;"/>
          </g>
          <g id="line2d_27">
            <g>
              <use style="stroke:#000000;stroke-width:1.25;" x="255.5" xlink:href="#me13d3e1730" y="373.5"/>
            </g>
          </g>
          <g id="line2d_28">
            <g>
              <use style="stroke:#000000;stroke-width:1.25;" x="255.5" xlink:href="#m0514ef5258" y="18.5"/>
            </g>
          </g>
          <g id="text_7">
            <!-- 0.6 -->
            <defs>
              <path d="M 33.015625 40.375 
Q 26.375 40.375 22.484375 35.828125 
Q 18.609375 31.296875 18.609375 23.390625 
Q 18.609375 15.53125 22.484375 10.953125 
Q 26.375 6.390625 33.015625 6.390625 
Q 39.65625 6.390625 43.53125 10.953125 
Q 47.40625 15.53125 47.40625 23.390625 
Q 47.40625 31.296875 43.53125 35.828125 
Q 39.65625 40.375 33.015625 40.375 
M 52.59375 71.296875 
L 52.59375 62.3125 
Q 48.875 64.0625 45.09375 64.984375 
Q 41.3125 65.921875 37.59375 65.921875 
Q 27.828125 65.921875 22.671875 59.328125 
Q 17.53125 52.734375 16.796875 39.40625 
Q 19.671875 43.65625 24.015625 45.921875 
Q 28.375 48.1875 33.59375 48.1875 
Q 44.578125 48.1875 50.953125 41.515625 
Q 57.328125 34.859375 57.328125 23.390625 
Q 57.328125 12.15625 50.6875 5.359375 
Q 44.046875 -1.421875 33.015625 -1.421875 
Q 20.359375 -1.421875 13.671875 8.265625 
Q 6.984375 17.96875 6.984375 36.375 
Q 6.984375 53.65625 15.1875 63.9375 
Q 23.390625 74.21875 37.203125 74.21875 
Q 40.921875 74.21875 44.703125 73.484375 
Q 48.484375 72.75 52.59375 71.296875 
" id="DejaVuSans-36"/>
            </defs>
            <g transform="translate(242.7775 392.6575)scale(0.16 -0.16)">
              <use xlink:href="#DejaVuSans-30"/>
              <use x="63.623046875" xlink:href="#DejaVuSans-2e"/>
              <use x="95.41015625" xlink:href="#DejaVuSans-36"/>
            </g>
          </g>
        </g>
        <g id="xtick_8">
          <g id="line2d_29">
            <path clip-path="url(#p8623bc88d4)" d="M 291 373.5 
L 291 18.5 
" style="fill:none;stroke:#000000;stroke-dasharray:1.000000,3.000000;stroke-dashoffset:0.0;stroke-width:0.5;"/>
          </g>
          <g id="line2d_30">
            <g>
              <use style="stroke:#000000;stroke-width:1.25;" x="291.0" xlink:href="#me13d3e1730" y="373.5"/>
            </g>
          </g>
          <g id="line2d_31">
            <g>
              <use style="stroke:#000000;stroke-width:1.25;" x="291.0" xlink:href="#m0514ef5258" y="18.5"/>
            </g>
          </g>
          <g id="text_8">
            <!-- 0.7 -->
            <defs>
              <path d="M 8.203125 72.90625 
L 55.078125 72.90625 
L 55.078125 68.703125 
L 28.609375 0 
L 18.3125 0 
L 43.21875 64.59375 
L 8.203125 64.59375 
z 
" id="DejaVuSans-37"/>
            </defs>
            <g transform="translate(278.2775 392.6575)scale(0.16 -0.16)">
              <use xlink:href="#DejaVuSans-30"/>
              <use x="63.623046875" xlink:href="#DejaVuSans-2e"/>
              <use x="95.41015625" xlink:href="#DejaVuSans-37"/>
            </g>
          </g>
        </g>
        <g id="xtick_9">
          <g id="line2d_32">
            <path clip-path="url(#p8623bc88d4)" d="M 326.5 373.5 
L 326.5 18.5 
" style="fill:none;stroke:#000000;stroke-dasharray:1.000000,3.000000;stroke-dashoffset:0.0;stroke-width:0.5;"/>
          </g>
          <g id="line2d_33">
            <g>
              <use style="stroke:#000000;stroke-width:1.25;" x="326.5" xlink:href="#me13d3e1730" y="373.5"/>
            </g>
          </g>
          <g id="line2d_34">
            <g>
              <use style="stroke:#000000;stroke-width:1.25;" x="326.5" xlink:href="#m0514ef5258" y="18.5"/>
            </g>
          </g>
          <g id="text_9">
            <!-- 0.8 -->
            <defs>
              <path d="M 31.78125 34.625 
Q 24.75 34.625 20.71875 30.859375 
Q 16.703125 27.09375 16.703125 20.515625 
Q 16.703125 13.921875 20.71875 10.15625 
Q 24.75 6.390625 31.78125 6.390625 
Q 38.8125 6.390625 42.859375 10.171875 
Q 46.921875 13.96875 46.921875 20.515625 
Q 46.921875 27.09375 42.890625 30.859375 
Q 38.875 34.625 31.78125 34.625 
M 21.921875 38.8125 
Q 15.578125 40.375 12.03125 44.71875 
Q 8.5 49.078125 8.5 55.328125 
Q 8.5 64.0625 14.71875 69.140625 
Q 20.953125 74.21875 31.78125 74.21875 
Q 42.671875 74.21875 48.875 69.140625 
Q 55.078125 64.0625 55.078125 55.328125 
Q 55.078125 49.078125 51.53125 44.71875 
Q 48 40.375 41.703125 38.8125 
Q 48.828125 37.15625 52.796875 32.3125 
Q 56.78125 27.484375 56.78125 20.515625 
Q 56.78125 9.90625 50.3125 4.234375 
Q 43.84375 -1.421875 31.78125 -1.421875 
Q 19.734375 -1.421875 13.25 4.234375 
Q 6.78125 9.90625 6.78125 20.515625 
Q 6.78125 27.484375 10.78125 32.3125 
Q 14.796875 37.15625 21.921875 38.8125 
M 18.3125 54.390625 
Q 18.3125 48.734375 21.84375 45.5625 
Q 25.390625 42.390625 31.78125 42.390625 
Q 38.140625 42.390625 41.71875 45.5625 
Q 45.3125 48.734375 45.3125 54.390625 
Q 45.3125 60.0625 41.71875 63.234375 
Q 38.140625 66.40625 31.78125 66.40625 
Q 25.390625 66.40625 21.84375 63.234375 
Q 18.3125 60.0625 18.3125 54.390625 
" id="DejaVuSans-38"/>
            </defs>
            <g transform="translate(313.7775 392.6575)scale(0.16 -0.16)">
              <use xlink:href="#DejaVuSans-30"/>
              <use x="63.623046875" xlink:href="#DejaVuSans-2e"/>
              <use x="95.41015625" xlink:href="#DejaVuSans-38"/>
            </g>
          </g>
        </g>
        <g id="xtick_10">
          <g id="line2d_35">
            <path clip-path="url(#p8623bc88d4)" d="M 362 373.5 
L 362 18.5 
" style="fill:none;stroke:#000000;stroke-dasharray:1.000000,3.000000;stroke-dashoffset:0.0;stroke-width:0.5;"/>
          </g>
          <g id="line2d_36">
            <g>
              <use style="stroke:#000000;stroke-width:1.25;" x="362.0" xlink:href="#me13d3e1730" y="373.5"/>
            </g>
          </g>
          <g id="line2d_37">
            <g>
              <use style="stroke:#000000;stroke-width:1.25;" x="362.0" xlink:href="#m0514ef5258" y="18.5"/>
            </g>
          </g>
          <g id="text_10">
            <!-- 0.9 -->
            <defs>
              <path d="M 10.984375 1.515625 
L 10.984375 10.5 
Q 14.703125 8.734375 18.5 7.8125 
Q 22.3125 6.890625 25.984375 6.890625 
Q 35.75 6.890625 40.890625 13.453125 
Q 46.046875 20.015625 46.78125 33.40625 
Q 43.953125 29.203125 39.59375 26.953125 
Q 35.25 24.703125 29.984375 24.703125 
Q 19.046875 24.703125 12.671875 31.3125 
Q 6.296875 37.9375 6.296875 49.421875 
Q 6.296875 60.640625 12.9375 67.421875 
Q 19.578125 74.21875 30.609375 74.21875 
Q 43.265625 74.21875 49.921875 64.515625 
Q 56.59375 54.828125 56.59375 36.375 
Q 56.59375 19.140625 48.40625 8.859375 
Q 40.234375 -1.421875 26.421875 -1.421875 
Q 22.703125 -1.421875 18.890625 -0.6875 
Q 15.09375 0.046875 10.984375 1.515625 
M 30.609375 32.421875 
Q 37.25 32.421875 41.125 36.953125 
Q 45.015625 41.5 45.015625 49.421875 
Q 45.015625 57.28125 41.125 61.84375 
Q 37.25 66.40625 30.609375 66.40625 
Q 23.96875 66.40625 20.09375 61.84375 
Q 16.21875 57.28125 16.21875 49.421875 
Q 16.21875 41.5 20.09375 36.953125 
Q 23.96875 32.421875 30.609375 32.421875 
" id="DejaVuSans-39"/>
            </defs>
            <g transform="translate(349.2775 392.6575)scale(0.16 -0.16)">
              <use xlink:href="#DejaVuSans-30"/>
              <use x="63.623046875" xlink:href="#DejaVuSans-2e"/>
              <use x="95.41015625" xlink:href="#DejaVuSans-39"/>
            </g>
          </g>
        </g>
        <g id="xtick_11">
          <g id="line2d_38">
            <path clip-path="url(#p8623bc88d4)" d="M 397.5 373.5 
L 397.5 18.5 
" style="fill:none;stroke:#000000;stroke-dasharray:1.000000,3.000000;stroke-dashoffset:0.0;stroke-width:0.5;"/>
          </g>
          <g id="line2d_39">
            <g>
              <use style="stroke:#000000;stroke-width:1.25;" x="397.5" xlink:href="#me13d3e1730" y="373.5"/>
            </g>
          </g>
          <g id="line2d_40">
            <g>
              <use style="stroke:#000000;stroke-width:1.25;" x="397.5" xlink:href="#m0514ef5258" y="18.5"/>
            </g>
          </g>
          <g id="text_11">
            <!-- 1.0 -->
            <g transform="translate(384.7775 392.6575)scale(0.16 -0.16)">
              <use xlink:href="#DejaVuSans-31"/>
              <use x="63.623046875" xlink:href="#DejaVuSans-2e"/>
              <use x="95.41015625" xlink:href="#DejaVuSans-30"/>
            </g>
          </g>
        </g>
      </g>
      <g id="matplotlib.axis_2">
        <g id="ytick_1">
          <g id="line2d_41">
            <path clip-path="url(#p8623bc88d4)" d="M 42.5 373.5 
L 397.5 373.5 
" style="fill:none;stroke:#000000;stroke-dasharray:3.000000,1.000000;stroke-dashoffset:0.0;stroke-width:0.5;"/>
          </g>
          <g id="line2d_42">
            <defs>
              <path d="M 0 0 
L 4 0 
" id="mc3bcea257e" style="stroke:#000000;stroke-width:1.25;"/>
            </defs>
            <g>
              <use style="stroke:#000000;stroke-width:1.25;" x="42.5" xlink:href="#mc3bcea257e" y="373.5"/>
            </g>
          </g>
          <g id="line2d_43">
            <defs>
              <path d="M 0 0 
L -4 0 
" id="m71952fc12d" style="stroke:#000000;stroke-width:1.25;"/>
            </defs>
            <g>
              <use style="stroke:#000000;stroke-width:1.25;" x="397.5" xlink:href="#m71952fc12d" y="373.5"/>
            </g>
          </g>
          <g id="text_12">
            <!-- 0.0 -->
            <g transform="translate(10.055 377.915)scale(0.16 -0.16)">
              <use xlink:href="#DejaVuSans-30"/>
              <use x="63.623046875" xlink:href="#DejaVuSans-2e"/>
              <use x="95.41015625" xlink:href="#DejaVuSans-30"/>
            </g>
          </g>
        </g>
        <g id="ytick_2">
          <g id="line2d_44">
            <path clip-path="url(#p8623bc88d4)" d="M 42.5 338 
L 397.5 338 
" style="fill:none;stroke:#000000;stroke-dasharray:1.000000,3.000000;stroke-dashoffset:0.0;stroke-width:0.5;"/>
          </g>
          <g id="line2d_45">
            <g>
              <use style="stroke:#000000;stroke-width:1.25;" x="42.5" xlink:href="#mc3bcea257e" y="338.0"/>
            </g>
          </g>
          <g id="line2d_46">
            <g>
              <use style="stroke:#000000;stroke-width:1.25;" x="397.5" xlink:href="#m71952fc12d" y="338.0"/>
            </g>
          </g>
          <g id="text_13">
            <!-- 0.1 -->
            <g transform="translate(10.055 342.415)scale(0.16 -0.16)">
              <use xlink:href="#DejaVuSans-30"/>
              <use x="63.623046875" xlink:href="#DejaVuSans-2e"/>
              <use x="95.41015625" xlink:href="#DejaVuSans-31"/>
            </g>
          </g>
        </g>
        <g id="ytick_3">
          <g id="line2d_47">
            <path clip-path="url(#p8623bc88d4)" d="M 42.5 302.5 
L 397.5 302.5 
" style="fill:none;stroke:#000000;stroke-dasharray:1.000000,3.000000;stroke-dashoffset:0.0;stroke-width:0.5;"/>
          </g>
          <g id="line2d_48">
            <g>
              <use style="stroke:#000000;stroke-width:1.25;" x="42.5" xlink:href="#mc3bcea257e" y="302.5"/>
            </g>
          </g>
          <g id="line2d_49">
            <g>
              <use style="stroke:#000000;stroke-width:1.25;" x="397.5" xlink:href="#m71952fc12d" y="302.5"/>
            </g>
          </g>
          <g id="text_14">
            <!-- 0.2 -->
            <g transform="translate(10.055 306.915)scale(0.16 -0.16)">
              <use xlink:href="#DejaVuSans-30"/>
              <use x="63.623046875" xlink:href="#DejaVuSans-2e"/>
              <use x="95.41015625" xlink:href="#DejaVuSans-32"/>
            </g>
          </g>
        </g>
        <g id="ytick_4">
          <g id="line2d_50">
            <path clip-path="url(#p8623bc88d4)" d="M 42.5 267 
L 397.5 267 
" style="fill:none;stroke:#000000;stroke-dasharray:1.000000,3.000000;stroke-dashoffset:0.0;stroke-width:0.5;"/>
          </g>
          <g id="line2d_51">
            <g>
              <use style="stroke:#000000;stroke-width:1.25;" x="42.5" xlink:href="#mc3bcea257e" y="267.0"/>
            </g>
          </g>
          <g id="line2d_52">
            <g>
              <use style="stroke:#000000;stroke-width:1.25;" x="397.5" xlink:href="#m71952fc12d" y="267.0"/>
            </g>
          </g>
          <g id="text_15">
            <!-- 0.3 -->
            <g transform="translate(10.055 271.415)scale(0.16 -0.16)">
              <use xlink:href="#DejaVuSans-30"/>
              <use x="63.623046875" xlink:href="#DejaVuSans-2e"/>
              <use x="95.41015625" xlink:href="#DejaVuSans-33"/>
            </g>
          </g>
        </g>
        <g id="ytick_5">
          <g id="line2d_53">
            <path clip-path="url(#p8623bc88d4)" d="M 42.5 231.5 
L 397.5 231.5 
" style="fill:none;stroke:#000000;stroke-dasharray:1.000000,3.000000;stroke-dashoffset:0.0;stroke-width:0.5;"/>
          </g>
          <g id="line2d_54">
            <g>
              <use style="stroke:#000000;stroke-width:1.25;" x="42.5" xlink:href="#mc3bcea257e" y="231.5"/>
            </g>
          </g>
          <g id="line2d_55">
            <g>
              <use style="stroke:#000000;stroke-width:1.25;" x="397.5" xlink:href="#m71952fc12d" y="231.5"/>
            </g>
          </g>
          <g id="text_16">
            <!-- 0.4 -->
            <g transform="translate(10.055 235.915)scale(0.16 -0.16)">
              <use xlink:href="#DejaVuSans-30"/>
              <use x="63.623046875" xlink:href="#DejaVuSans-2e"/>
              <use x="95.41015625" xlink:href="#DejaVuSans-34"/>
            </g>
          </g>
        </g>
        <g id="ytick_6">
          <g id="line2d_56">
            <path clip-path="url(#p8623bc88d4)" d="M 42.5 196 
L 397.5 196 
" style="fill:none;stroke:#000000;stroke-dasharray:1.000000,3.000000;stroke-dashoffset:0.0;stroke-width:0.5;"/>
          </g>
          <g id="line2d_57">
            <g>
              <use style="stroke:#000000;stroke-width:1.25;" x="42.5" xlink:href="#mc3bcea257e" y="196.0"/>
            </g>
          </g>
          <g id="line2d_58">
            <g>
              <use style="stroke:#000000;stroke-width:1.25;" x="397.5" xlink:href="#m71952fc12d" y="196.0"/>
            </g>
          </g>
          <g id="text_17">
            <!-- 0.5 -->
            <g transform="translate(10.055 200.415)scale(0.16 -0.16)">
              <use xlink:href="#DejaVuSans-30"/>
              <use x="63.623046875" xlink:href="#DejaVuSans-2e"/>
              <use x="95.41015625" xlink:href="#DejaVuSans-35"/>
            </g>
          </g>
        </g>
        <g id="ytick_7">
          <g id="line2d_59">
            <path clip-path="url(#p8623bc88d4)" d="M 42.5 160.5 
L 397.5 160.5 
" style="fill:none;stroke:#000000;stroke-dasharray:1.000000,3.000000;stroke-dashoffset:0.0;stroke-width:0.5;"/>
          </g>
          <g id="line2d_60">
            <g>
              <use style="stroke:#000000;stroke-width:1.25;" x="42.5" xlink:href="#mc3bcea257e" y="160.5"/>
            </g>
          </g>
          <g id="line2d_61">
            <g>
              <use style="stroke:#000000;stroke-width:1.25;" x="397.5" xlink:href="#m71952fc12d" y="160.5"/>
            </g>
          </g>
          <g id="text_18">
            <!-- 0.6 -->
            <g transform="translate(10.055 164.915)scale(0.16 -0.16)">
              <use xlink:href="#DejaVuSans-30"/>
              <use x="63.623046875" xlink:href="#DejaVuSans-2e"/>
              <use x="95.41015625" xlink:href="#DejaVuSans-36"/>
            </g>
          </g>
        </g>
        <g id="ytick_8">
          <g id="line2d_62">
            <path clip-path="url(#p8623bc88d4)" d="M 42.5 125 
L 397.5 125 
" style="fill:none;stroke:#000000;stroke-dasharray:1.000000,3.000000;stroke-dashoffset:0.0;stroke-width:0.5;"/>
          </g>
          <g id="line2d_63">
            <g>
              <use style="stroke:#000000;stroke-width:1.25;" x="42.5" xlink:href="#mc3bcea257e" y="125.0"/>
            </g>
          </g>
          <g id="line2d_64">
            <g>
              <use style="stroke:#000000;stroke-width:1.25;" x="397.5" xlink:href="#m71952fc12d" y="125.0"/>
            </g>
          </g>
          <g id="text_19">
            <!-- 0.7 -->
            <g transform="translate(10.055 129.415)scale(0.16 -0.16)">
              <use xlink:href="#DejaVuSans-30"/>
              <use x="63.623046875" xlink:href="#DejaVuSans-2e"/>
              <use x="95.41015625" xlink:href="#DejaVuSans-37"/>
            </g>
          </g>
        </g>
        <g id="ytick_9">
          <g id="line2d_65">
            <path clip-path="url(#p8623bc88d4)" d="M 42.5 89.5 
L 397.5 89.5 
" style="fill:none;stroke:#000000;stroke-dasharray:1.000000,3.000000;stroke-dashoffset:0.0;stroke-width:0.5;"/>
          </g>
          <g id="line2d_66">
            <g>
              <use style="stroke:#000000;stroke-width:1.25;" x="42.5" xlink:href="#mc3bcea257e" y="89.5"/>
            </g>
          </g>
          <g id="line2d_67">
            <g>
              <use style="stroke:#000000;stroke-width:1.25;" x="397.5" xlink:href="#m71952fc12d" y="89.5"/>
            </g>
          </g>
          <g id="text_20">
            <!-- 0.8 -->
            <g transform="translate(10.055 93.915)scale(0.16 -0.16)">
              <use xlink:href="#DejaVuSans-30"/>
              <use x="63.623046875" xlink:href="#DejaVuSans-2e"/>
              <use x="95.41015625" xlink:href="#DejaVuSans-38"/>
            </g>
          </g>
        </g>
        <g id="ytick_10">
          <g id="line2d_68">
            <path clip-path="url(#p8623bc88d4)" d="M 42.5 54 
L 397.5 54 
" style="fill:none;stroke:#000000;stroke-dasharray:1.000000,3.000000;stroke-dashoffset:0.0;stroke-width:0.5;"/>
          </g>
          <g id="line2d_69">
            <g>
              <use style="stroke:#000000;stroke-width:1.25;" x="42.5" xlink:href="#mc3bcea257e" y="54.0"/>
            </g>
          </g>
          <g id="line2d_70">
            <g>
              <use style="stroke:#000000;stroke-width:1.25;" x="397.5" xlink:href="#m71952fc12d" y="54.0"/>
            </g>
          </g>
          <g id="text_21">
            <!-- 0.9 -->
            <g transform="translate(10.055 58.415)scale(0.16 -0.16)">
              <use xlink:href="#DejaVuSans-30"/>
              <use x="63.623046875" xlink:href="#DejaVuSans-2e"/>
              <use x="95.41015625" xlink:href="#DejaVuSans-39"/>
            </g>
          </g>
        </g>
        <g id="ytick_11">
          <g id="line2d_71">
            <path clip-path="url(#p8623bc88d4)" d="M 42.5 18.5 
L 397.5 18.5 
" style="fill:none;stroke:#000000;stroke-dasharray:1.000000,3.000000;stroke-dashoffset:0.0;stroke-width:0.5;"/>
          </g>
          <g id="line2d_72">
            <g>
              <use style="stroke:#000000;stroke-width:1.25;" x="42.5" xlink:href="#mc3bcea257e" y="18.5"/>
            </g>
          </g>
          <g id="line2d_73">
            <g>
              <use style="stroke:#000000;stroke-width:1.25;" x="397.5" xlink:href="#m71952fc12d" y="18.5"/>
            </g>
          </g>
          <g id="text_22">
            <!-- 1.0 -->
            <g transform="translate(10.055 22.915)scale(0.16 -0.16)">
              <use xlink:href="#DejaVuSans-31"/>
              <use x="63.623046875" xlink:href="#DejaVuSans-2e"/>
              <use x="95.41015625" xlink:href="#DejaVuSans-30"/>
            </g>
          </g>
        </g>
      </g>
      <g id="text_23">
        <!-- $x^{1/8}$ -->
        <defs>
          <path d="M 25.390625 72.90625 
L 33.6875 72.90625 
L 8.296875 -9.28125 
L 0 -9.28125 
z 
" id="DejaVuSans-2f"/>
          <path d="M 54.890625 54.6875 
L 35.109375 28.078125 
L 55.90625 0 
L 45.3125 0 
L 29.390625 21.484375 
L 13.484375 0 
L 2.875 0 
L 24.125 28.609375 
L 4.6875 54.6875 
L 15.28125 54.6875 
L 29.78125 35.203125 
L 44.28125 54.6875 
z 
" id="DejaVuSans-78"/>
        </defs>
        <g transform="translate(80.7234263901 85.3634263901)scale(0.16 -0.16)">
          <use transform="translate(0.0 0.4375)" xlink:href="#DejaVuSans-78"/>
          <use transform="translate(62.05078125 25.046875)scale(0.7)" xlink:href="#DejaVuSans-31"/>
          <use transform="translate(106.586914062 25.046875)scale(0.7)" xlink:href="#DejaVuSans-2f"/>
          <use transform="translate(130.116210938 25.046875)scale(0.7)" xlink:href="#DejaVuSans-38"/>
        </g>
      </g>
      <g id="text_24">
        <!-- $x^{1/4}$ -->
        <g transform="translate(111.665354555 116.305354555)scale(0.16 -0.16)">
          <use transform="translate(0.0 0.35625)" xlink:href="#DejaVuSans-78"/>
          <use transform="translate(62.05078125 24.965625)scale(0.7)" xlink:href="#DejaVuSans-31"/>
          <use transform="translate(106.586914062 24.965625)scale(0.7)" xlink:href="#DejaVuSans-2f"/>
          <use transform="translate(130.170898438 24.965625)scale(0.7)" xlink:href="#DejaVuSans-34"/>
        </g>
      </g>
      <g id="text_25">
        <!-- $x^{1/2}$ -->
        <g transform="translate(149.457933994 154.097933994)scale(0.16 -0.16)">
          <use transform="translate(0.0 0.4375)" xlink:href="#DejaVuSans-78"/>
          <use transform="translate(62.05078125 25.046875)scale(0.7)" xlink:href="#DejaVuSans-31"/>
          <use transform="translate(106.586914062 25.046875)scale(0.7)" xlink:href="#DejaVuSans-2f"/>
          <use transform="translate(130.138085938 25.046875)scale(0.7)" xlink:href="#DejaVuSans-32"/>
        </g>
      </g>
      <g id="text_26">
        <!-- $x^{1}$ -->
        <g transform="translate(202.24 196.0)scale(0.16 -0.16)">
          <use transform="translate(0.0 0.35625)" xlink:href="#DejaVuSans-78"/>
          <use transform="translate(62.05078125 24.965625)scale(0.7)" xlink:href="#DejaVuSans-31"/>
        </g>
      </g>
      <g id="text_27">
        <!-- $x^{2}$ -->
        <g transform="translate(244.142066006 237.902066006)scale(0.16 -0.16)">
          <use transform="translate(0.0 0.4375)" xlink:href="#DejaVuSans-78"/>
          <use transform="translate(62.05078125 25.046875)scale(0.7)" xlink:href="#DejaVuSans-32"/>
        </g>
      </g>
      <g id="text_28">
        <!-- $x^{4}$ -->
        <g transform="translate(281.934645445 275.694645445)scale(0.16 -0.16)">
          <use transform="translate(0.0 0.35625)" xlink:href="#DejaVuSans-78"/>
          <use transform="translate(62.05078125 24.965625)scale(0.7)" xlink:href="#DejaVuSans-34"/>
        </g>
      </g>
      <g id="text_29">
        <!-- $x^{8}$ -->
        <g transform="translate(312.87657361 306.63657361)scale(0.16 -0.16)">
          <use transform="translate(0.0 0.4375)" xlink:href="#DejaVuSans-78"/>
          <use transform="translate(62.05078125 25.046875)scale(0.7)" xlink:href="#DejaVuSans-38"/>
        </g>
      </g>
    </g>
  </g>
</svg>
